# xmcd
#
# Track frame offsets:
#	150
#	23116
#	44706
#	59843
#	89066
#	111095
#	125952
#	153428
#	173511
#	198929
#
# Disc length: 2905 seconds
#
# Revision: 1
# Processed by: cddbd v1.5.1PL2 Copyright (c) Steve Scherf et al.
# Submitted via: EasyCDDAExtractor 6.2.0.3
#
DISCID=910b570a
DTITLE=Sidesteps - steppin' out
DYEAR=2006
DGENRE=Blues
TTITLE0=pearl
TTITLE1=do you remember
TTITLE2=your lullaby
TTITLE3=so it goes
TTITLE4=love hurts
TTITLE5=i'll be forever leaving you
TTITLE6=on devil's playground
TTITLE7=runaway
TTITLE8=billy
TTITLE9=tower song
EXTD=
EXTT0=
EXTT1=
EXTT2=
EXTT3=
EXTT4=
EXTT5=
EXTT6=
EXTT7=
EXTT8=
EXTT9=
PLAYORDER=
